<!-- public/candl.svg -->
<svg width="256" height="256" viewBox="0 0 256 256" xmlns="http://www.w3.org/2000/svg">
  <defs>
    <radialGradient id="bg" cx="50%" cy="40%" r="70%">
      <stop offset="0" stop-color="#66A3FF"/>
      <stop offset="1" stop-color="#8C5BFF"/>
    </radialGradient>
    <linearGradient id="stick" x1="0" y1="0" x2="0" y2="1">
      <stop offset="0" stop-color="#FFFFFF" stop-opacity="0.98"/>
      <stop offset="1" stop-color="#EAF0FF" stop-opacity="0.85"/>
    </linearGradient>
    <linearGradient id="ring" x1="0" y1="0" x2="1" y2="1">
      <stop offset="0" stop-color="#FFFFFF" stop-opacity="0.9"/>
      <stop offset="1" stop-color="#FFFFFF" stop-opacity="0.2"/>
    </linearGradient>
  </defs>

  <!-- soft circle -->
  <circle cx="128" cy="128" r="120" fill="url(#bg)"/>
  <!-- ring highlight -->
  <circle cx="128" cy="128" r="120" fill="none" stroke="url(#ring)" stroke-width="2"/>

  <!-- “C” arc -->
  <path d="M186 88c-17-17-40-28-66-28-50 0-90 40-90 90s40 90 90 90c24 0 46-9 64-26"
        fill="none" stroke="#FFFFFF" stroke-opacity=".98" stroke-width="18" stroke-linecap="round"/>

  <!-- spark at the leading edge (top-left) -->
  <circle cx="80" cy="68" r="5" fill="#FFFFFF" opacity=".95"/>
  <circle cx="80" cy="68" r="10" fill="#FFFFFF" opacity=".18"/>

  <!-- candle 1 -->
  <rect x="84" y="78" width="24" height="62" rx="7" fill="url(#stick)"/>
  <rect x="96" y="60" width="2.5" height="20" rx="1.25" fill="#fff" opacity=".9"/>
  <rect x="96" y="140" width="2.5" height="18" rx="1.25" fill="#fff" opacity=".9"/>

  <!-- candle 2 -->
  <rect x="136" y="116" width="24" height="38" rx="7" fill="url(#stick)"/>
  <rect x="148" y="100" width="2.5" height="16" rx="1.25" fill="#fff" opacity=".9"/>
  <rect x="148" y="154" width="2.5" height="14" rx="1.25" fill="#fff" opacity=".9"/>

  <!-- gentle gloss -->
  <ellipse cx="98" cy="74" rx="58" ry="40" fill="#fff" opacity=".08"/>
</svg>
